# Blender3D v248 OBJ File: tubular-bell.blend
# www.blender3d.org
o Tubular_bell
v 0.176777 0.176777 -2.000000
v 0.230970 0.095671 -2.000000
v 0.250000 -0.000000 -2.000000
v 0.230970 -0.095671 -2.000000
v 0.176777 -0.176777 -2.000000
v 0.095671 -0.230970 -2.000000
v 0.000000 -0.250000 -2.000000
v -0.095671 -0.230970 -2.000000
v -0.176777 -0.176777 -2.000000
v -0.230970 -0.095671 -2.000000
v -0.250000 0.000000 -2.000000
v -0.230970 0.095671 -2.000000
v -0.176777 0.176777 -2.000000
v -0.095671 0.230970 -2.000000
v 0.000000 0.250000 -2.000000
v 0.095671 0.230970 -2.000000
v 0.176777 0.176777 0.000000
v 0.230970 0.095671 0.000000
v 0.250000 -0.000000 0.000000
v 0.230970 -0.095671 0.000000
v 0.176776 -0.176777 0.000000
v 0.095670 -0.230970 0.000000
v -0.000000 -0.250000 0.000000
v -0.095671 -0.230970 0.000000
v -0.176777 -0.176776 0.000000
v -0.230970 -0.095670 0.000000
v -0.250000 0.000001 0.000000
v -0.230970 0.095671 0.000000
v -0.176776 0.176777 0.000000
v -0.095670 0.230970 0.000000
v 0.000001 0.250000 0.000000
v 0.095672 0.230970 0.000000
v 0.086104 0.207873 0.000000
v 0.000001 0.225000 0.000000
v -0.086103 0.207873 0.000000
v -0.159099 0.159099 0.000000
v -0.207873 0.086104 0.000000
v -0.225000 0.000001 0.000000
v -0.207873 -0.086103 0.000000
v -0.159099 -0.159099 0.000000
v -0.086104 -0.207873 0.000000
v -0.000000 -0.225000 0.000000
v 0.086103 -0.207873 0.000000
v 0.159099 -0.159099 0.000000
v 0.207873 -0.086104 0.000000
v 0.225000 -0.000000 0.000000
v 0.207873 0.086104 0.000000
v 0.159099 0.159099 0.000000
v 0.086104 0.207873 -2.000000
v 0.000000 0.225000 -2.000000
v -0.086104 0.207873 -2.000000
v -0.159099 0.159099 -2.000000
v -0.207873 0.086104 -2.000000
v -0.225000 0.000000 -2.000000
v -0.207873 -0.086104 -2.000000
v -0.159099 -0.159099 -2.000000
v -0.086104 -0.207873 -2.000000
v 0.000000 -0.225000 -2.000000
v 0.086104 -0.207873 -2.000000
v 0.159099 -0.159099 -2.000000
v 0.207873 -0.086104 -2.000000
v 0.225000 -0.000000 -2.000000
v 0.207873 0.086104 -2.000000
v 0.159099 0.159099 -2.000000
vn 0.000000 0.000000 1.000000
vn 0.000000 0.000000 -1.000000
vn 0.546709 0.546709 -0.634144
vn 0.546709 0.546709 0.634144
vn 0.714316 0.295877 0.634144
vn 0.714316 0.295877 -0.634144
vn 0.773186 0.000000 0.634144
vn 0.773186 0.000000 -0.634144
vn 0.714316 -0.295877 0.634144
vn 0.714316 -0.295877 -0.634144
vn 0.546709 -0.546709 0.634144
vn 0.546709 -0.546709 -0.634144
vn 0.295877 -0.714316 0.634144
vn 0.295877 -0.714316 -0.634144
vn 0.000000 -0.773186 0.634144
vn 0.000000 -0.773186 -0.634144
vn -0.295877 -0.714316 0.634144
vn -0.295877 -0.714316 -0.634144
vn -0.546709 -0.546709 0.634144
vn -0.546709 -0.546709 -0.634144
vn -0.714316 -0.295877 0.634144
vn -0.714316 -0.295877 -0.634144
vn -0.773186 0.000000 0.634144
vn -0.773186 0.000000 -0.634144
vn -0.714316 0.295877 0.634144
vn -0.714316 0.295877 -0.634144
vn -0.546709 0.546709 0.634144
vn -0.546709 0.546709 -0.634144
vn -0.295877 0.714316 0.634144
vn -0.295877 0.714316 -0.634144
vn 0.000000 0.773186 0.634144
vn 0.000000 0.773186 -0.634144
vn 0.295877 0.714316 0.634144
vn 0.295877 0.714316 -0.634144
usemtl Bell
s off
f 17//1 32//1 33//1 48//1
f 16//2 1//2 64//2 49//2
f 32//1 31//1 34//1 33//1
f 15//2 16//2 49//2 50//2
f 31//1 30//1 35//1 34//1
f 14//2 15//2 50//2 51//2
f 30//1 29//1 36//1 35//1
f 13//2 14//2 51//2 52//2
f 29//1 28//1 37//1 36//1
f 12//2 13//2 52//2 53//2
f 28//1 27//1 38//1 37//1
f 11//2 12//2 53//2 54//2
f 27//1 26//1 39//1 38//1
f 10//2 11//2 54//2 55//2
f 26//1 25//1 40//1 39//1
f 9//2 10//2 55//2 56//2
f 25//1 24//1 41//1 40//1
f 8//2 9//2 56//2 57//2
f 24//1 23//1 42//1 41//1
f 7//2 8//2 57//2 58//2
f 23//1 22//1 43//1 42//1
f 6//2 7//2 58//2 59//2
f 22//1 21//1 44//1 43//1
f 5//2 6//2 59//2 60//2
f 21//1 20//1 45//1 44//1
f 4//2 5//2 60//2 61//2
f 20//1 19//1 46//1 45//1
f 3//2 4//2 61//2 62//2
f 19//1 18//1 47//1 46//1
f 2//2 3//2 62//2 63//2
f 18//1 17//1 48//1 47//1
f 1//2 2//2 63//2 64//2
s 1
f 1//3 17//4 18//5 2//6
f 2//6 18//5 19//7 3//8
f 3//8 19//7 20//9 4//10
f 4//10 20//9 21//11 5//12
f 5//12 21//11 22//13 6//14
f 6//14 22//13 23//15 7//16
f 7//16 23//15 24//17 8//18
f 8//18 24//17 25//19 9//20
f 9//20 25//19 26//21 10//22
f 10//22 26//21 27//23 11//24
f 11//24 27//23 28//25 12//26
f 12//26 28//25 29//27 13//28
f 13//28 29//27 30//29 14//30
f 14//30 30//29 31//31 15//32
f 15//32 31//31 32//33 16//34
f 17//4 1//3 16//34 32//33
f 47//21 48//19 64//20 63//22
f 46//23 47//21 63//22 62//24
f 45//25 46//23 62//24 61//26
f 44//27 45//25 61//26 60//28
f 43//29 44//27 60//28 59//30
f 42//31 43//29 59//30 58//32
f 41//33 42//31 58//32 57//34
f 40//4 41//33 57//34 56//3
f 39//5 40//4 56//3 55//6
f 38//7 39//5 55//6 54//8
f 37//9 38//7 54//8 53//10
f 36//11 37//9 53//10 52//12
f 35//13 36//11 52//12 51//14
f 34//15 35//13 51//14 50//16
f 33//17 34//15 50//16 49//18
f 48//19 33//17 49//18 64//20
