# Blender3D v248 OBJ File: celesta.blend
# www.blender3d.org
mtllib celesta-bar.mtl
v -0.100000 0.500000 -5.000000
v -0.100000 -0.500000 -5.000000
v -0.100000 0.500000 -1.200000
v -0.100000 -0.500000 -1.200000
v -0.100000 -0.500000 -0.200000
v -0.100000 0.500000 -0.200000
v 0.100000 0.500000 -0.200000
v 0.100000 -0.500000 -0.200000
v 0.100000 -0.500000 -1.200000
v 0.100000 0.500000 -1.200000
v 0.100000 -0.500000 -5.000000
v 0.100000 0.500000 -5.000000
v -0.100000 0.240000 -0.940000
v -0.100000 -0.240000 -0.940000
v -0.100000 -0.240000 -0.460000
v -0.100000 0.240000 -0.460000
v 0.100000 0.240000 -0.460000
v 0.100000 -0.240000 -0.460000
v 0.100000 -0.240000 -0.940000
v 0.100000 0.240000 -0.940000
vn -1.000000 -0.000000 0.000000
vn 0.000000 0.000000 1.000000
vn 0.000000 1.000000 0.000000
vn 0.000000 -1.000000 0.000000
vn 0.000000 0.000000 -1.000000
vn 1.000000 0.000000 0.000000
usemtl Bell
s off
f 3//1 1//1 2//1 4//1
f 5//2 8//2 7//2 6//2
f 6//3 7//3 10//3 3//3
f 4//4 9//4 8//4 5//4
f 4//4 2//4 11//4 9//4
f 1//3 3//3 10//3 12//3
f 2//5 1//5 12//5 11//5
f 11//6 12//6 10//6 9//6
f 3//1 4//1 14//1 13//1
f 4//1 5//1 15//1 14//1
f 6//1 3//1 13//1 16//1
f 5//1 6//1 16//1 15//1
f 7//6 8//6 18//6 17//6
f 8//6 9//6 19//6 18//6
f 9//6 10//6 20//6 19//6
f 10//6 7//6 17//6 20//6
f 15//5 16//5 17//5 18//5
f 13//4 20//4 17//4 16//4
f 13//2 14//2 19//2 20//2
f 14//3 15//3 18//3 19//3
