# Blender3D v248 OBJ File: celesta.blend
# www.blender3d.org
mtllib celesta-mallet.mtl
v 0.200000 0.200000 -1.400000
v 0.200000 0.200000 -1.800000
v 0.200000 -0.200000 -1.800000
v 0.200000 -0.200000 -1.400000
v 0.800000 0.200000 -1.400000
v 0.800000 0.200000 -1.800000
v 0.800000 -0.200000 -1.800000
v 0.800000 -0.200000 -1.400000
vn -1.000000 0.000000 0.000000
vn 1.000000 0.000000 0.000000
vn -0.000000 1.000000 -0.000000
vn -0.000000 -0.000000 -1.000000
vn -0.000000 -1.000000 0.000000
vn 0.000000 0.000000 1.000000
usemtl Rubber
s off
f 1//1 2//1 3//1 4//1
f 5//2 8//2 7//2 6//2
f 1//3 5//3 6//3 2//3
f 2//4 6//4 7//4 3//4
f 3//5 7//5 8//5 4//5
f 5//6 1//6 4//6 8//6
