# Blender3D v248 OBJ File: celesta.blend
# www.blender3d.org
mtllib celesta-hook.mtl
v 0.200000 0.141421 -0.558579
v 0.200000 0.184776 -0.623463
v 0.200000 0.200000 -0.700000
v 0.200000 0.184776 -0.776537
v 0.200000 0.141421 -0.841421
v 0.200000 0.076537 -0.884776
v 0.200000 0.000000 -0.900000
v 0.200000 -0.076537 -0.884776
v 0.200000 -0.141421 -0.841421
v 0.200000 -0.184776 -0.776537
v 0.200000 -0.200000 -0.700000
v 0.200000 -0.184776 -0.623463
v 0.200000 -0.141421 -0.558579
v 0.200000 -0.076537 -0.515224
v 0.200000 0.000000 -0.500000
v 0.200000 0.076537 -0.515224
v -0.200000 0.141421 -0.558579
v -0.200000 0.184776 -0.623463
v -0.200000 0.200000 -0.700000
v -0.200000 0.184776 -0.776537
v -0.200000 0.141421 -0.841421
v -0.200000 0.076537 -0.884776
v -0.200000 0.000000 -0.900000
v -0.200000 -0.076537 -0.884776
v -0.200000 -0.141421 -0.841421
v -0.200000 -0.184776 -0.776537
v -0.200000 -0.200000 -0.700000
v -0.200000 -0.184776 -0.623463
v -0.200000 -0.141421 -0.558579
v -0.200000 -0.076537 -0.515224
v -0.200000 0.000000 -0.500000
v -0.200000 0.076537 -0.515224
v 0.200000 0.300000 -0.000000
v 0.200000 0.300000 -1.000000
v 0.260000 0.300000 0.000000
v 0.240209 0.300000 0.099498
v 0.184776 0.300000 0.076536
v 0.240208 -0.300000 0.099498
v 0.184776 -0.300000 0.076537
v 0.141421 -0.300000 0.141421
v 0.183847 -0.300000 0.183848
v 0.141422 0.300000 0.141421
v 0.183848 0.300000 0.183848
v 0.099498 0.300000 0.240209
v 0.076537 0.300000 0.184776
v 0.099497 -0.300000 0.240209
v 0.076537 -0.300000 0.184776
v 0.000000 -0.300000 0.200000
v -0.000000 -0.300000 0.260000
v 0.000000 0.300000 0.200000
v -0.000000 0.300000 0.260000
v -0.099498 0.300000 0.240209
v -0.076536 0.300000 0.184776
v -0.099498 -0.300000 0.240208
v -0.076537 -0.300000 0.184776
v -0.141421 -0.300000 0.141421
v -0.183848 -0.300000 0.183847
v -0.141421 0.300000 0.141422
v -0.183848 0.300000 0.183848
v -0.240209 0.300000 0.099498
v -0.184776 0.300000 0.076537
v -0.240209 -0.300000 0.099497
v -0.184776 -0.300000 0.076537
v -0.200000 -0.300000 -0.000000
v 0.260000 -0.300000 -1.000000
v 0.260000 0.300000 -1.000000
v -0.200000 0.300000 -0.000000
v -0.260000 0.300000 -0.000000
v 0.200000 -0.300000 -1.000000
v -0.200000 -0.300000 -1.000000
v -0.260000 -0.300000 -1.000000
v -0.260000 0.300000 -1.000000
v -0.200000 0.300000 -1.000000
v 0.200000 -0.300000 -0.000000
v -0.260000 -0.300000 -0.000000
v 0.260000 -0.300000 0.000000
vn 0.000000 0.707083 0.707083
vn 0.000000 0.923856 0.382672
vn 0.000000 1.000000 0.000000
vn 0.000000 0.923856 -0.382672
vn 0.000000 0.707083 -0.707083
vn 0.000000 0.382672 -0.923856
vn 0.000000 0.000000 -1.000000
vn 0.000000 -0.382672 -0.923856
vn 0.000000 -0.707083 -0.707083
vn 0.000000 -0.923856 -0.382672
vn 0.000000 -1.000000 0.000000
vn 0.000000 -0.923856 0.382672
vn 0.000000 -0.707083 0.707083
vn 0.000000 -0.382672 0.923856
vn 0.000000 0.000000 1.000000
vn 0.000000 0.382672 0.923856
vn 0.701987 -0.708792 0.069124
vn 0.701987 0.708792 0.069124
vn 0.646901 0.713920 0.267953
vn 0.646901 -0.713920 0.267953
vn -0.701987 0.708792 -0.069124
vn -0.701987 -0.708792 -0.069124
vn -0.646901 -0.713920 -0.267953
vn -0.646901 0.713920 -0.267953
vn 0.495102 -0.713920 0.495102
vn -0.495102 -0.713920 -0.495102
vn -0.495102 0.713920 -0.495102
vn 0.495102 0.713920 0.495102
vn 0.267953 0.713920 0.646901
vn 0.267953 -0.713920 0.646901
vn -0.267953 -0.713920 -0.646901
vn -0.267953 0.713920 -0.646901
vn 0.000000 -0.713920 0.700186
vn 0.000000 -0.713920 -0.700186
vn 0.000000 0.713920 -0.700186
vn 0.000000 0.713920 0.700186
vn -0.267953 0.713920 0.646901
vn -0.267953 -0.713920 0.646901
vn 0.267953 -0.713920 -0.646901
vn 0.267953 0.713920 -0.646901
vn -0.495102 -0.713920 0.495102
vn 0.495102 -0.713920 -0.495102
vn 0.495102 0.713920 -0.495102
vn -0.495102 0.713920 0.495102
vn -0.646901 0.713920 0.267953
vn -0.646901 -0.713920 0.267953
vn 0.646901 -0.713920 -0.267953
vn 0.646901 0.713920 -0.267953
vn -0.701987 -0.708792 0.069124
vn 0.701987 -0.708792 -0.069124
vn 0.701987 0.708792 -0.069124
vn -0.701987 0.708792 0.069124
vn 0.577349 -0.577349 -0.577349
vn -0.577319 -0.577349 -0.577349
vn 0.577349 0.577349 -0.577349
vn -0.577319 0.577349 -0.577349
vn -0.577349 0.577349 -0.577349
vn -0.577349 -0.577349 -0.577349
usemtl Metal
s 1
f 17//1 1//1 2//2 18//2
f 2//2 3//3 19//3 18//2
f 4//4 20//4 19//3 3//3
f 5//5 21//5 20//4 4//4
f 6//6 22//6 21//5 5//5
f 7//7 23//7 22//6 6//6
f 8//8 24//8 23//7 7//7
f 9//9 25//9 24//8 8//8
f 10//10 26//10 25//9 9//9
f 11//11 27//11 26//10 10//10
f 12//12 28//12 27//11 11//11
f 13//13 29//13 28//12 12//12
f 14//14 30//14 29//13 13//13
f 15//15 31//15 30//14 14//14
f 16//16 32//16 31//15 15//15
f 16//16 1//1 17//1 32//16
f 76//17 35//18 36//19 38//20
f 33//21 74//22 39//23 37//24
f 35//18 33//21 37//24 36//19
f 74//22 76//17 38//20 39//23
f 39//23 38//20 41//25 40//26
f 36//19 37//24 42//27 43//28
f 37//24 39//23 40//26 42//27
f 38//20 36//19 43//28 41//25
f 41//25 43//28 44//29 46//30
f 42//27 40//26 47//31 45//32
f 43//28 42//27 45//32 44//29
f 40//26 41//25 46//30 47//31
f 47//31 46//30 49//33 48//34
f 44//29 45//32 50//35 51//36
f 45//32 47//31 48//34 50//35
f 46//30 44//29 51//36 49//33
f 49//33 51//36 52//37 54//38
f 50//35 48//34 55//39 53//40
f 51//36 50//35 53//40 52//37
f 48//34 49//33 54//38 55//39
f 55//39 54//38 57//41 56//42
f 52//37 53//40 58//43 59//44
f 53//40 55//39 56//42 58//43
f 54//38 52//37 59//44 57//41
f 57//41 59//44 60//45 62//46
f 58//43 56//42 63//47 61//48
f 59//44 58//43 61//48 60//45
f 56//42 57//41 62//46 63//47
f 63//47 62//46 75//49 64//50
f 60//45 61//48 67//51 68//52
f 61//48 63//47 64//50 67//51
f 62//46 60//45 68//52 75//49
f 65//53 76//17 74//22 69//54
f 35//18 66//55 34//56 33//21
f 33//21 34//56 69//54 74//22
f 66//55 35//18 76//17 65//53
f 68//52 72//57 71//58 75//49
f 64//50 70//53 73//55 67//51
f 67//51 73//55 72//57 68//52
f 75//49 71//58 70//53 64//50
f 34//56 66//55 65//53 69//54
f 71//58 72//57 73//55 70//53
