# Blender3D v248 OBJ File: string-plucked.blend
# www.blender3d.org
o Cap
v -10.299999 0.200000 -0.880000
v -10.544917 0.200000 -0.831283
v -10.752548 0.200000 -0.692549
v -10.891282 0.200000 -0.484918
v -10.940000 0.200000 -0.240000
v -10.891282 0.200000 0.004918
v -10.752547 0.200000 0.212549
v -10.544916 0.200000 0.351283
v -10.299999 0.200000 0.400000
v -10.300001 -0.200000 -0.880000
v -10.544918 -0.200000 -0.831282
v -10.752549 -0.200000 -0.692547
v -10.891283 -0.200000 -0.484916
v -10.940000 -0.200000 -0.239998
v -10.891282 -0.200000 0.004919
v -10.752546 -0.200000 0.212550
v -10.544915 -0.200000 0.351284
v -10.299997 -0.200000 0.400000
v -10.000000 0.200000 -0.900000
v -10.000002 -0.200000 -0.900000
v -10.000000 0.200000 0.400000
v -9.999997 -0.200000 0.400000
vn 1.000000 0.000001 -0.000002
vn -0.000000 -1.000000 0.000000
vn -0.000000 1.000000 -0.000000
vn -0.489944 0.628437 -0.604144
vn -0.489944 -0.628437 -0.604144
vn -0.295877 -0.634144 -0.714316
vn -0.295877 0.634144 -0.714316
vn -0.546709 -0.634144 -0.546709
vn -0.546709 0.634144 -0.546709
vn -0.714316 -0.634144 -0.295877
vn -0.714316 0.634144 -0.295877
vn -0.774895 -0.632069 0.000000
vn -0.774895 0.632069 0.000000
vn -0.714316 -0.634144 0.295877
vn -0.714316 0.634144 0.295877
vn -0.546709 -0.634144 0.546709
vn -0.546709 0.634175 0.546709
vn -0.295877 -0.634144 0.714316
vn -0.295877 0.634144 0.714316
vn -0.477157 -0.624378 0.618397
vn -0.477157 0.624378 0.618397
vn 0.555284 0.582507 -0.593524
vn 0.555284 -0.582507 -0.593524
vn 0.577349 -0.577349 0.577349
vn 0.577349 0.577349 0.577349
usemtl Metal
s 1
f 19//1 21//1 22//1 20//1
f 10//2 20//2 22//2 18//2
f 10//2 18//2 17//2 11//2
f 11//2 17//2 16//2 12//2
f 12//2 16//2 15//2 13//2
f 13//2 15//2 14//2
f 4//3 5//3 6//3
f 3//3 4//3 6//3 7//3
f 2//3 3//3 7//3 8//3
f 1//3 2//3 8//3 9//3
f 1//3 9//3 21//3 19//3
s 1
f 1//4 10//5 11//6 2//7
s 1
f 2//7 11//6 12//8 3//9
s 1
f 3//9 12//8 13//10 4//11
s 1
f 4//11 13//10 14//12 5//13
s 1
f 5//13 14//12 15//14 6//15
s 1
f 6//15 15//14 16//16 7//17
s 1
f 7//17 16//16 17//18 8//19
s 1
f 8//19 17//18 18//20 9//21
s 1
f 10//5 1//4 19//22 20//23
s 1
f 9//21 18//20 22//24 21//25
s 1
f 1//4 10//5 18//20 9//21
