# Blender3D v248 OBJ File: string-plucked.blend
# www.blender3d.org
mtllib string-plucked-string.mtl
o String
v -10.300000 0.017678 0.182322
v -10.300000 0.000000 0.175000
v -10.300000 -0.017678 0.182322
v -10.300000 -0.025000 0.200000
v -10.300000 -0.017678 0.217678
v -10.300000 0.000000 0.225000
v -10.300000 0.017678 0.217678
v -10.300000 0.025000 0.200000
v -0.300000 0.017678 0.182322
v -0.300000 0.000000 0.175000
v -0.300000 -0.017678 0.182322
v -0.300000 -0.025000 0.200000
v -0.300000 -0.017678 0.217678
v -0.300000 0.000000 0.225000
v -0.300000 0.017678 0.217678
v -0.300000 0.025000 0.200000
vn 0.000000 0.707083 -0.707083
vn 0.000000 0.000000 -1.000000
vn 0.000000 -0.707083 -0.707083
vn 0.000000 -1.000000 0.000000
vn 0.000000 -0.707083 0.707083
vn 0.000000 0.000000 1.000000
vn 0.000000 0.707083 0.707083
vn 0.000000 1.000000 0.000000
usemtl String
s 1
f 1//1 9//1 10//2 2//2
s 1
f 2//2 10//2 11//3 3//3
s 1
f 3//3 11//3 12//4 4//4
s 1
f 4//4 12//4 13//5 5//5
s 1
f 5//5 13//5 14//6 6//6
s 1
f 6//6 14//6 15//7 7//7
s 1
f 7//7 15//7 16//8 8//8
s 1
f 9//1 1//1 8//8 16//8
